<?xml version="1.0" encoding="utf-8"?>
<!-- Generator: Adobe Illustrator 19.0.0, SVG Export Plug-In . SVG Version: 6.00 Build 0)  -->
<svg version="1.1" id="Layer_1" xmlns="http://www.w3.org/2000/svg" xmlns:xlink="http://www.w3.org/1999/xlink" x="0px" y="0px"
	 viewBox="-241.3 60.1 400 104.9" style="enable-background:new -241.3 60.1 400 104.9;" xml:space="preserve">
<style type="text/css">
	.st0{fill:#FF8000;}
</style>
<title>Asset 1</title>
<g id="Layer_2">
	<g id="Layer_1-2">
		<g id="LieferandoDE">
			<g id="LieferandoDE_Full_Colour">
				<path id="House" class="st0" d="M-192.4,61.2c2-1.5,4.7-1.5,6.7,0c5.2,3.3,10,6.7,14.9,10.4c0,0,1.1,0.7,1.5-0.7
					c-0.2-1.9-0.1-3.8,0.4-5.6c0.4-1.1,1.4-1.8,2.6-1.9c0,0,5.6,0.4,9.3,0.7c1.6,0.3,2.8,1.7,3,3.3c0,0,2.2,15.6,3,21.2
					c0.8,2.9,2.3,5.6,4.5,7.8c3.4,4.5,6.5,9.3,9.3,14.1c0,0,1.9,4.1-2.2,4.5c0,0-7.8,0.7-8.6,1.1c-1.1,0.1-1.9,1.1-1.9,2.2l0,0
					c0,0-0.4,27.2-2.2,40.6c0,0-0.4,5.2-3.3,5.2c0,0-7.8-0.4-9.7-0.4c0,0-0.7,0-0.7-1.1c0,0,4.1-42.4,1.5-64c0-1.5-0.9-2.8-2.2-3.3
					c0,0-1.9-0.7-3.7,1.9c-8,11.2-12.5,24.6-12.6,38.3c-0.2,2.9,0,5.8,0.7,8.6c0,0,0.7,1.1,4.1,1.5l4.1,0.7c0,0,0.7,0,0.7,1.1
					c0,0-1.1,12.6-1.1,14.9c0.1,0.5-0.1,1.1-0.4,1.5c-0.4,0.3-1,0.4-1.5,0.4h-20.5c-0.4,0-0.8-0.1-1.1-0.4c-0.4-0.7-1.1-16-1.1-18.2
					c0-0.4,0.4-0.7,0.7-1.1c2.9-1.8,4.8-4.8,5.2-8.2c0.3-2.3,0.3-4.7,0-7.1c0,0,0.7-23.8,0.7-27.9c0,0,0.4-1.1-1.5-1.5
					c-0.7-0.3-1.5,0.1-1.8,0.9c0,0.1,0,0.2-0.1,0.2l0,0c0,0-1.1,16-1.1,22c0,0,0.4,4.1-2.2,4.1c0,0-2.6,0.4-3-3
					c0,0,0.4-15.3,0.7-23.1c-0.1-0.8-0.7-1.4-1.5-1.5c-0.7-0.4-1.9,0.4-1.9,1.5l0,0c0,0-1.1,14.9-1.1,22.3c0,0,0.4,3.7-2.6,3.7
					c0,0-2.6,0.4-2.6-3c0,0,0.7-21.2,0.7-22.7c0.1-0.9-0.6-1.7-1.5-1.9h-0.4c-0.7,0-1.9,0.4-1.9,1.5v0.4c0,0-1.2,25.3-1.2,32.7
					c0,4.3,2.1,8.3,5.6,10.8c0.4,0.2,0.7,0.6,0.7,1.1c0,0,0.7,13.4,1.1,17.9c0,0,0.4,1.1-0.7,1.1l-14.1-0.7c0,0-2.2,0.4-3-2.6
					c-1.7-14.2-2.6-28.5-2.6-42.8c0.1-1.1-0.7-2.1-1.9-2.2c0,0-7.1-0.7-8.9-1.1c-1.6-0.4-2.6-2.1-2.2-3.7c0-0.4,0.4-0.4,0.4-0.7
					C-228.7,90.9-212.1,73.9-192.4,61.2z"/>
			</g>
			<g id="PysznePL-2">
				<path class="st0" d="M96,114.7c-1.5-1.6-3.2-2.8-5.2-3.7c-2.3-0.9-4.6-1.4-7.1-1.5c-2.7,0-5.3,0.5-7.8,1.5
					c-2.3,0.9-4.4,2.1-6.3,3.7c-1.9,1.6-3.3,3.6-4.1,6c-2.2,5.6-2.2,11.9,0,17.5c1.1,2.1,2.5,4.1,4.1,6c1.8,1.7,4,3,6.3,3.7
					c2.5,0.9,5.2,1.4,7.8,1.5c2.9,0,5.9-0.7,8.6-1.9c2.1-0.9,4-2.1,5.6-3.7c0.4-0.7,0.4-1.5,0-2.2l-4.8-3.7l0,0l-0.4-0.4
					c-0.7-0.4-1.5-0.4-1.9,0.4l-2.2,2.2c-1.4,0.7-2.9,1.1-4.5,1.1c-2-0.1-3.9-0.8-5.6-1.9c-1.5-1.8-2.5-4-3-6.3
					c0-0.4,0.3-0.7,0.7-0.7h23.4c0.9-0.1,1.6-0.9,1.5-1.9v-1.9c0-2.6-0.4-5.3-1.1-7.8C98.9,118.6,97.5,116.6,96,114.7z M88.5,124
					H75.9c-0.4,0-0.8-0.3-0.8-0.7c0-0.7,0.4-1.1,0.4-1.9c0.7-1.7,2-3,3.7-3.7c1.1-0.4,2.2-0.7,3.3-0.7c1.8,0,3.5,0.7,4.8,1.9
					c1.1,1.1,1.8,2.5,1.9,4.1C89.3,123.7,88.9,124,88.5,124z"/>
				<path class="st0" d="M-14.9,127.8c-1.4-0.8-2.9-1.4-4.5-1.9l-4.5-1.1l-3.3-1.1c-0.8-0.3-1.3-1-1.5-1.9c-0.1-0.9,0.3-1.8,1.1-2.2
					c0.8-0.4,1.7-0.7,2.6-0.7c1.9,0.1,3.7,0.7,5.2,1.9c0.7,0.4,1.5,0.4,2.2,0l4.5-4.8c0.4-0.7,0.4-1.5,0-2.2c-1.5-1.2-3.1-2.2-4.8-3
					c-2.3-0.8-4.7-1.1-7.1-1.1c-1.9,0.1-3.7,0.3-5.6,0.7c-1.8,0.4-3.4,1.1-4.8,2.2c-1.4,1-2.5,2.2-3.3,3.7c-0.9,1.7-1.3,3.7-1.1,5.6
					c0,2,0.5,3.9,1.5,5.6c0.7,1.5,1.9,2.6,3.3,3.3c1.4,0.8,2.9,1.4,4.5,1.9l4.5,1.1l3.3,1.1c1.2,0.5,1.8,1.9,1.3,3.2
					c-0.2,0.6-0.7,1.1-1.3,1.3c-1,0.5-2.2,0.6-3.3,0.4c-2.6,0.1-5-1-6.7-3c-0.7-0.4-1.5-0.4-2.2,0l-4.5,6c-0.4,0.7-0.4,1.9,0.4,2.2
					l0,0c1.6,1.2,3.4,2.2,5.2,3c2.4,0.7,4.9,1.1,7.4,1.1c1.9,0.1,3.7-0.1,5.6-0.4c1.8-0.4,3.6-1,5.2-1.9c1.6-0.8,2.9-2.1,3.7-3.7
					c1.1-1.8,1.6-3.9,1.5-6c0-2-0.5-3.9-1.5-5.6C-12.3,129.8-13.4,128.4-14.9,127.8z"/>
				<path class="st0" d="M-84.5,102.5c-1.9-1.1-3.9-2-6-2.6c-2.2-0.4-4.4-0.7-6.7-0.7H-112c-0.8,0.1-1.4,0.7-1.5,1.5v46.1
					c0.1,0.8,0.7,1.4,1.5,1.5h7.8c0.8-0.1,1.4-0.7,1.5-1.5V130c0-0.4,0.3-0.7,0.7-0.7h5.2c2.2-0.1,4.5-0.3,6.7-0.7
					c2.2-0.3,4.2-1.2,6-2.6c1.6-1.3,2.9-2.9,3.7-4.8c1-2.2,1.5-4.6,1.5-7.1c0.1-2.4-0.4-4.9-1.5-7.1
					C-81.5,105.2-82.8,103.7-84.5,102.5z M-90.8,117c-0.4,0.8-1.1,1.4-1.9,1.9c-0.7,0.4-1.1,0.7-1.9,0.7c-0.7,0-1.9,0.4-3,0.4h-4.5
					c-0.4,0-0.7-0.3-0.7-0.7v-10c0-0.4,0.3-0.7,0.7-0.7h5.9c0.9,0.1,1.8,0.3,2.6,0.7c0.8,0.5,1.6,1.1,2.2,1.9c0.6,0.9,0.9,1.9,0.7,3
					C-90.2,115-90.3,116.1-90.8,117z"/>
				<path class="st0" d="M21.9,139.7H5.2c-0.2,0-0.4-0.2-0.4-0.4v-0.4h0.4l16-15.3l0.7-0.7c0.7-0.7,1.1-1.6,1.1-2.6v-7.4l0,0
					c0-0.7-0.7-1.9-1.5-1.9H-6c-0.8,0.1-1.5,0.7-1.9,1.5v5.6c0.1,0.9,0.9,1.6,1.9,1.5H9.3c0.4,0,0.4,0.4,0.4,0.7v0.4l-14.1,13.8l0,0
					l-1.9,1.9l-0.4,0.4c-0.7,0.4-0.7,1.1-1.1,2.2v8.2c0.1,0.8,0.7,1.4,1.5,1.5h28.6c1-0.1,1.8-0.9,1.9-1.9l0,0v-5.6l0,0
					C23.8,140.3,22.9,139.7,21.9,139.7z"/>
				<path class="st0" d="M-38.7,111.8L-38.7,111.8c-0.4-0.7-0.7-1.1-1.5-1.1h-6.7c-1.2,0.1-2.4,0.8-3,1.9l0,0v0.4l0,0v1.1l0,0
					l-6,19.3l0,0v0.4c0,0.4-0.4,0.7-0.7,0.4s-0.7,0-0.7-0.4l-7.1-19.7l0,0v-0.4l-0.4-1.5c-0.5-1.2-1.7-2-3-1.9h-7.4
					c-0.6,0-1.1,0.5-1.1,1.1v0.4l0,0v0.7l14.1,34.6v2.2l0,0l-0.7,0.7c-0.3,0.9-0.7,1.8-1.1,2.6c-0.4,0.7-0.7,1.1-1.1,1.9
					c-1.3,1.2-3.1,1.7-4.8,1.5h-4.8c-0.8,0.1-1.4,0.7-1.5,1.5v6c0.1,0.8,0.7,1.4,1.5,1.5h6.3c2.1,0.1,4.3-0.1,6.3-0.7
					c1.5-0.4,3-1.1,4.1-2.2c1.1-1.1,2-2.3,2.6-3.7c0.7-1.5,1.5-3,2.2-4.8l15.3-40.9C-38.7,112.5-38.7,112.1-38.7,111.8z"/>
				<path class="st0" d="M58,114.7c-1-1.6-2.4-2.9-4.1-3.7c-2.1-0.9-4.4-1.3-6.7-1.1c-1.3-0.1-2.5,0.1-3.7,0.4
					c-1.1,0.3-2.1,0.8-3,1.5c-0.8,0.5-1.6,1.1-2.2,1.9c0,0.4-0.4,0.4-0.7,0.7h-0.4c-0.4,0-0.4-0.4-0.7-0.4v-1.5
					c0-0.8-0.6-1.5-1.4-1.5c-0.1,0-0.3,0-0.4,0h-7.1c-0.7,0-1.9,0.7-1.9,1.5v34.6c0.1,0.9,0.9,1.6,1.9,1.5h7.8
					c0.8-0.1,1.5-0.7,1.9-1.5v-21.6c0.1-1,0.3-2,0.7-3c0.5-0.8,1.1-1.6,1.9-2.2c1.1-0.4,2.2-0.7,3.3-0.7c2.1-0.1,4,1.1,4.8,3
					c0.4,0.9,0.7,1.9,0.7,3v21.6c0.1,0.9,0.9,1.6,1.9,1.5h7.8c0.8-0.1,1.5-0.7,1.9-1.5V127c0.1-2.2-0.1-4.5-0.4-6.7
					C59.7,118.3,59.1,116.4,58,114.7z"/>
				<path class="st0" d="M156.9,95.4h-2.6c-1,0.1-1.8,0.9-1.9,1.9v49.9c0,0.7,0.7,1.5,1.9,1.9h2.6c1-0.1,1.8-0.9,1.9-1.9V97.3
					C158.5,96.1,157.7,95.4,156.9,95.4z"/>
				<path class="st0" d="M105.3,140.8c-1.1,0-2.2,0.4-3,1.1c-1.5,1.7-1.5,4.3,0,6c1.6,1.6,4.2,1.7,5.9,0.1c0,0,0,0,0.1-0.1l0,0
					c1.5-1.7,1.5-4.3,0-6C107.4,141.2,106.4,140.8,105.3,140.8z"/>
				<path class="st0" d="M142.8,115.5c-1.4-1.6-3.2-2.9-5.2-3.7c-4-1.9-8.6-1.9-12.6,0c-1.6,0.9-3.1,1.9-4.5,3v-3l0,0
					c-0.1-0.9-0.9-1.6-1.9-1.5H116c-0.8,0.1-1.4,0.7-1.5,1.5v51c0.1,0.8,0.7,1.4,1.5,1.5h3c0.8-0.1,1.4-0.7,1.5-1.5l0,0v-17.9
					c1.2,1.3,2.8,2.2,4.5,2.6c4,1.9,8.6,1.9,12.6,0c2-0.9,3.7-2.2,5.2-3.7c1.5-1.6,2.6-3.5,3.3-5.6c0.7-2.7,1.1-5.4,1.1-8.2
					c0-3.1-0.4-6.3-1.1-9.3C145.2,118.9,144.1,117.1,142.8,115.5z M141.3,136.3c-0.4,1.5-1.1,3-2.2,4.1c-0.8,1.2-2,2.1-3.3,2.6
					c-2.8,1.5-6.1,1.5-8.9,0c-1.3-0.7-2.4-1.5-3.3-2.6c-1.1-1.1-1.9-2.6-2.2-4.1c-0.4-2-0.7-3.9-0.7-6c0.1-2.2,0.3-4.5,0.7-6.7
					c0.3-1.5,1.1-2.9,2.2-4.1c0.8-1.2,2-2.1,3.3-2.6c2.8-1.5,6.1-1.5,8.9,0c1.3,0.7,2.4,1.5,3.3,2.6c1.1,1.1,1.9,2.6,2.2,4.1
					c0.4,2.2,0.7,4.4,0.7,6.7C142.2,132.4,142,134.4,141.3,136.3z"/>
			</g>
		</g>
	</g>
</g>
</svg>
